PathFileType	4	(X/Y/Z)	T:\Spectrum_Optical_Capture\Spectrum_Demo_10_05_01_TRUECOMBAT\07_Smooth_Trc\TC_Jog_1.trc
DataRate	CameraRate	NumFrames	NumMarkers	Units	OrigDataRate	OrigDataStartFrame	OrigNumFrames
60.0	60.0	       7	46	mm	60.0	316	       504
Frame#	Time	HeadTop			ForeHead			LFrontHead			RFrontHead			TopSpine			Sternum			Scapula			LFShoulder			LShoulder			LBicep			LOuterElbow			LHand			LWristPinky			LWristThumb			RFShoulder			RShoulder			RBicep			ROuterElbow			RHand			RWristPinky			RWristThumb			MiddleBack			LowerBack			Root			Pelvis			LBackWaist			RBackWaist			LFrontWaist			RFrontWaist			Bellymarker			LThigh			LOuterKnee			LAnkle			LHeel			LOuterMeta			LToe			RThigh			ROuterKnee			RAnkle			RHeel			ROuterMeta			RToe			Floor1			Floor2			Floor3			Floor4			
		X1	Y1	Z1	X2	Y2	Z2	X3	Y3	Z3	X4	Y4	Z4	X5	Y5	Z5	X6	Y6	Z6	X7	Y7	Z7	X8	Y8	Z8	X9	Y9	Z9	X10	Y10	Z10	X11	Y11	Z11	X12	Y12	Z12	X13	Y13	Z13	X14	Y14	Z14	X15	Y15	Z15	X16	Y16	Z16	X17	Y17	Z17	X18	Y18	Z18	X19	Y19	Z19	X20	Y20	Z20	X21	Y21	Z21	X22	Y22	Z22	X23	Y23	Z23	X24	Y24	Z24	X25	Y25	Z25	X26	Y26	Z26	X27	Y27	Z27	X28	Y28	Z28	X29	Y29	Z29	X30	Y30	Z30	X31	Y31	Z31	X32	Y32	Z32	X33	Y33	Z33	X34	Y34	Z34	X35	Y35	Z35	X36	Y36	Z36	X37	Y37	Z37	X38	Y38	Z38	X39	Y39	Z39	X40	Y40	Z40	X41	Y41	Z41	X42	Y42	Z42	X43	Y43	Z43	X44	Y44	Z44	X45	Y45	Z45	X46	Y46	Z46	

316	5.250	1483.24084	1638.27417	1845.04504	1562.58862	1520.10913	1941.00513	1590.61963	1517.84570	1823.82300	1449.94287	1514.70874	1944.27686	1399.07751	1341.48303	1712.58496	1535.70276	1123.05505	1897.40112	1273.44360	1215.50110	1735.58972	1575.52734	1241.22534	1833.43994	1610.20862	1330.40454	1676.08374	1674.07288	1129.97119	1605.27332	1616.65320	1031.11353	1533.56628	1746.17126	1000.31250	1742.86597	1767.82153	941.62885	1830.76184	1787.50781	1039.08472	1864.21655	1447.80151	1233.03638	1922.42688	1300.86230	1320.59741	1899.90552	1179.00781	1199.25513	1847.93738	1115.12390	1061.98193	1788.75647	1252.82593	952.53314	1963.61438	1303.54712	872.82672	1987.95178	1350.07349	919.47693	2061.88086	1383.09436	1257.41248	1682.69434	1374.00232	1132.30530	1671.03821	1369.33325	1016.20636	1670.47046	1512.08411	1045.78796	1616.12488	1488.06348	931.08807	1602.03308	1273.03809	926.92291	1784.12341	1592.38049	915.26221	1699.23706	1337.90881	916.96875	1910.63440	1533.21448	920.39886	1887.77686	1550.04187	645.56134	1617.50122	1533.31482	478.01886	1649.36328	1366.00549	140.50090	1546.65662	1240.97559	97.50262	1519.76563	1378.18848	39.97049	1569.29309	1402.94043	33.54861	1693.30383	1371.16321	692.23621	1974.83716	1406.86450	531.72369	1976.84888	1315.34131	251.79187	1813.49048	1307.36731	213.39429	1681.09631	1293.52319	132.00412	1816.74976	1399.43335	87.91407	1866.63318	4200.43115	32.39914	-4240.99854	-3732.42114	-12.84594	-4190.80518	-3783.54932	-15.63637	4949.78564	4162.09717	21.32603	4905.02344	
317	5.267	1506.61279	1649.89343	1875.66736	1585.35706	1531.36316	1970.76489	1613.04590	1529.27161	1853.34143	1473.06250	1526.04675	1974.44653	1424.01038	1354.02759	1739.32361	1557.50073	1136.97681	1926.99255	1298.44214	1228.05176	1759.91943	1597.70898	1255.36633	1864.36438	1635.38440	1344.32178	1707.89197	1701.98169	1143.42700	1640.84094	1646.67310	1043.38098	1568.83728	1768.79456	1019.66357	1782.53186	1787.54822	964.60040	1873.51563	1807.05225	1063.44177	1903.59314	1468.11401	1246.95215	1950.64966	1322.50378	1333.78381	1924.24023	1200.46436	1216.58728	1867.95569	1134.99915	1081.80493	1806.35669	1268.45532	968.10944	1980.91772	1318.78943	887.47711	2005.77734	1365.82202	933.09344	2079.46021	1409.13318	1269.74805	1709.05713	1400.80737	1145.13501	1697.83667	1396.48926	1029.62817	1699.13855	1540.39014	1059.46619	1646.71143	1515.45496	943.98157	1632.50269	1298.90869	940.73456	1812.93591	1619.21436	927.38849	1731.03882	1363.88574	929.65308	1939.52441	1559.15747	935.10870	1919.52502	1567.96545	658.86853	1638.60522	1543.61951	491.63065	1661.43481	1373.45923	152.13599	1552.01709	1250.26855	112.90696	1524.92688	1382.22803	43.08776	1572.19543	1404.63452	32.20671	1694.42078	1398.11865	706.57007	2003.06335	1434.74109	545.04419	2002.55432	1363.67419	233.70114	1863.92151	1358.57336	181.85532	1736.26343	1353.91064	112.49678	1879.34814	1463.24182	84.19740	1931.65393	4200.44238	32.36671	-4241.01563	-3732.38843	-12.89331	-4190.84570	-3783.60840	-15.62103	4949.87061	4161.97217	21.46424	4905.16943	
318	5.283	1530.04907	1661.03918	1906.30530	1608.04175	1542.40466	2000.44055	1635.52100	1540.34473	1882.97473	1496.17847	1536.99780	2004.54956	1448.97620	1366.47607	1766.82874	1579.72522	1150.99597	1956.70093	1323.29907	1240.82153	1785.30652	1620.13879	1269.58606	1895.23938	1660.01099	1357.99402	1739.41211	1729.51477	1157.23682	1675.68616	1676.49414	1056.12292	1603.20679	1791.38953	1038.33264	1820.71313	1806.97461	986.20129	1914.24280	1825.74365	1085.78528	1941.73230	1489.11755	1260.75464	1979.29407	1344.89014	1346.77844	1949.69031	1222.53821	1233.58240	1889.90918	1156.03711	1101.07031	1825.75610	1285.81128	983.44287	1999.70398	1335.64905	901.74908	2025.01587	1382.97046	946.50452	2098.21191	1434.88879	1282.17151	1736.05054	1427.25793	1157.74390	1725.42505	1423.68701	1043.30530	1728.78931	1568.29114	1072.90796	1677.39075	1542.99011	957.04242	1663.61426	1324.90710	954.35309	1841.72461	1646.20337	939.86383	1763.16174	1390.80774	941.57507	1968.53711	1584.78296	950.02448	1951.42090	1587.18005	672.94458	1660.89136	1556.24609	506.30618	1675.63123	1383.55444	165.73221	1558.66626	1262.79431	131.39619	1532.03882	1387.63550	47.75074	1575.67773	1407.55554	30.67004	1696.14575	1423.76440	719.08246	2030.05591	1460.34155	556.60437	2026.03076	1413.44189	216.94846	1915.40833	1412.63843	152.98540	1794.04517	1416.66492	95.10770	1942.87000	1528.09204	83.44286	1995.57983	4200.42920	32.40315	-4241.03467	-3732.41260	-12.96007	-4190.86182	-3783.61475	-15.59499	4949.92529	4162.04834	21.59691	4905.35547	
319	5.300	1553.47949	1670.85291	1936.71533	1630.74390	1552.25403	2029.93896	1658.14075	1550.22449	1912.57397	1519.17810	1546.76001	2034.33374	1473.87537	1377.79749	1795.01208	1602.35437	1163.96399	1986.49719	1347.90356	1252.82092	1811.83313	1642.84131	1282.83679	1926.04883	1684.07983	1370.41565	1770.51587	1756.58557	1170.29297	1709.49316	1705.81689	1068.10583	1636.57507	1814.04370	1055.40271	1857.31018	1826.70557	1005.59875	1952.94373	1843.83911	1105.59473	1978.57446	1510.81104	1273.41394	2008.42249	1367.96497	1358.67578	1976.24036	1245.08643	1249.08557	1913.86023	1178.10364	1118.53894	1847.03015	1304.74036	997.27344	2020.22095	1354.20923	914.43719	2045.58704	1401.17603	958.33929	2118.51855	1460.17468	1293.73767	1763.65662	1453.19458	1169.24866	1753.82532	1450.69690	1056.13269	1758.98120	1595.75183	1085.12500	1708.10413	1570.42932	969.41003	1695.01221	1350.80701	966.72992	1870.35071	1673.03296	951.91614	1794.95764	1417.38477	952.65015	1997.23389	1609.99463	963.73419	1982.76587	1607.95325	686.31354	1684.43933	1571.71704	520.18329	1692.50476	1396.22241	180.80211	1566.57751	1278.25757	152.48395	1540.78699	1394.42249	54.75636	1579.56995	1411.98279	29.46586	1698.47131	1448.28638	728.90643	2056.04761	1484.03442	565.49805	2047.87158	1463.72009	202.74973	1967.01270	1468.52100	128.53621	1852.98022	1480.26074	80.83870	2006.01794	1592.37451	85.36847	2057.50635	4200.40234	32.47526	-4241.04639	-3732.44531	-13.01279	-4190.87354	-3783.60498	-15.57900	4949.93115	4162.24609	21.65734	4905.49268	
320	5.317	1576.83386	1678.65601	1966.66602	1653.53015	1560.14624	2059.23779	1680.97827	1558.20874	1941.97876	1542.04785	1554.67053	2063.68457	1498.52673	1387.06958	1823.72229	1625.27551	1174.74426	2016.32715	1372.22156	1262.99329	1839.47485	1665.81885	1294.08093	1956.76575	1707.68835	1380.66370	1801.18579	1783.14819	1181.53540	1742.08069	1734.41943	1078.32349	1668.83984	1836.85608	1070.08472	1892.18750	1847.13599	1022.08679	1989.50085	1861.75647	1122.44702	2013.98303	1533.11462	1283.92847	2038.04529	1391.59290	1368.57397	2003.73840	1267.96423	1262.02930	1939.59253	1200.94751	1133.00171	1870.24524	1325.05078	1008.59985	2042.76074	1374.41309	924.76550	2067.61328	1420.65100	967.65594	2140.73926	1484.90222	1303.46106	1791.82971	1478.68689	1178.83337	1782.93066	1477.36035	1067.00134	1789.11536	1622.76904	1095.23120	1738.70667	1597.65393	980.16278	1726.22058	1376.43884	976.79620	1898.71484	1699.49426	962.56421	1826.17639	1442.37134	962.86371	2025.39868	1634.84814	974.89331	2013.11096	1630.47852	697.48413	1709.38062	1590.45923	531.64404	1712.55920	1410.92969	196.98792	1575.89990	1295.76099	175.49005	1550.96045	1402.60352	64.97508	1583.85461	1418.24756	29.73153	1701.22900	1471.88293	735.41852	2081.39526	1506.39282	571.09717	2068.89111	1513.09436	191.80774	2017.20874	1524.42944	109.77255	1910.73010	1542.48853	70.24857	2066.67188	1654.09460	88.94335	2116.07227	4200.37842	32.54205	-4241.04883	-3732.43384	-13.01339	-4190.88379	-3783.60205	-15.59296	4949.87891	4162.43896	21.63225	4905.52930	
321	5.333	1600.07568	1683.96252	1996.00903	1676.43774	1565.60645	2088.33105	1704.04346	1563.74939	1971.12256	1564.88281	1560.24951	2092.63477	1522.79565	1393.56018	1852.80176	1648.36719	1182.40906	2046.08301	1396.22632	1270.37036	1868.02124	1689.05322	1302.40417	1987.25098	1731.00732	1388.01624	1831.45178	1809.21912	1190.05994	1773.47156	1762.22241	1085.99915	1699.98633	1860.01050	1081.66504	1925.25781	1868.45898	1035.00818	2023.91650	1880.07532	1135.73218	2047.75879	1555.90356	1291.40845	2067.93091	1415.56250	1375.65149	2031.98926	1291.09229	1271.44812	1966.83398	1224.30029	1143.35913	1895.50793	1346.60144	1016.60614	2067.51563	1396.20703	932.09192	2091.37183	1441.84399	973.82312	2165.18750	1509.11743	1310.49231	1820.44409	1503.91895	1185.76135	1812.46814	1503.53528	1074.92175	1818.69775	1649.26465	1102.52258	1768.86987	1624.57056	988.34094	1756.76428	1401.67358	983.58990	1926.68115	1725.48596	970.76740	1856.79187	1465.64258	971.19208	2053.16968	1659.44287	982.60315	2042.56555	1654.89636	705.29730	1735.91003	1612.78955	539.56970	1736.09302	1427.03381	214.10634	1586.97852	1314.18005	199.66245	1562.88489	1412.35376	78.90714	1588.83313	1426.77625	32.95932	1704.30249	1494.76868	738.30328	2106.43701	1528.14905	573.26172	2090.02026	1559.92383	184.03490	2064.09399	1578.02771	97.08242	1964.47974	1600.66968	62.93014	2122.13599	1711.06494	92.33989	2169.60327	4200.37793	32.59113	-4241.05078	-3732.36353	-12.96204	-4190.88525	-3783.58691	-15.63656	4949.77734	4162.57129	21.55170	4905.48438	
322	5.350	1623.21277	1686.50366	2024.67224	1699.46533	1568.41943	2117.18750	1727.25037	1566.46008	2000.02319	1587.73474	1563.21069	2121.21826	1546.66504	1396.80762	1882.08203	1671.58325	1186.38818	2075.62793	1419.89893	1274.26721	1897.15747	1712.47791	1307.10510	2017.29321	1754.21069	1392.00110	1861.34033	1834.86206	1195.22803	1803.79834	1789.22205	1090.57068	1730.08179	1883.59790	1089.37329	1956.58093	1890.71106	1043.66943	2056.32104	1899.41711	1144.68945	2079.72510	1579.05371	1295.29382	2097.76904	1439.59253	1379.32471	2060.83423	1314.42834	1276.53467	1995.44727	1247.93591	1148.76331	1922.93164	1369.31982	1020.64911	2094.55103	1419.53247	935.81641	2117.17969	1464.93530	976.43121	2191.99805	1532.93665	1314.28638	1849.32776	1528.96106	1189.47900	1842.05969	1529.05859	1079.13501	1847.54688	1675.03333	1106.55237	1798.20667	1651.00085	993.08350	1786.33911	1426.42737	986.40375	1954.18018	1750.96033	975.70984	1886.74292	1488.17981	975.96338	2080.89282	1683.74170	986.48505	2071.46973	1681.18677	709.13336	1764.10962	1638.73584	543.33691	1763.01111	1444.27234	232.00079	1600.37427	1332.81580	224.23602	1577.35327	1424.07996	96.36689	1595.13293	1438.12732	40.18451	1707.92871	1517.23438	737.65710	2131.52539	1550.06799	572.30981	2112.04004	1602.65173	178.54861	2105.76733	1626.88513	89.79359	2011.51453	1652.08557	57.51089	2169.70020	1761.21741	93.26269	2216.32031	4200.41113	32.62797	-4241.05908	-3732.27710	-12.90704	-4190.87842	-3783.53223	-15.68217	4949.66309	4162.65283	21.47456	4905.41113																																																																																																																																																	1638.69763	1299.27588	2060.29297	
